<svg xmlns="http://www.w3.org/2000/svg" width="159.036" height="40" viewBox="0 0 159.036 40">
  <path id="logo-dark.f1e7132bc4" d="M51.353,15.642c0-2.853-2.774-5.883-7.575-5.883-5.391,0-11.313,3.955-12.218,11.845-.925,7.969,4.033,11.51,9.031,11.51s7.614-1.948,10.29-4.545a4.552,4.552,0,0,0-5.844-1.259,5.981,5.981,0,0,1-3.089.748c-1.928,0-3.9-.866-3.9-4.466C50.408,22.371,51.353,18.495,51.353,15.642Zm-6.119.472c-.079.885-.433,2.4-6.69,3.246,1.318-4.683,3.837-5.037,5-5.037A1.634,1.634,0,0,1,45.234,16.114ZM24.3,16.881s-2.656,8.342-2.873,9.031C21.348,25.2,19.4,10.231,19.4,10.231c-4.525,0-6.945,3.227-8.224,6.631,0,0-3.227,8.362-3.5,9.07-.02-.649-.492-8.972-.492-8.972A7.394,7.394,0,0,0,0,10.251L3.738,32.937c4.742-.02,7.3-3.227,8.637-6.631,0,0,2.853-7.378,2.971-7.713.02.315,2.046,14.343,2.046,14.343,4.761,0,7.319-3.01,8.7-6.3l6.67-16.39c-4.7,0-7.182,3.207-8.46,6.631ZM68.824,9.72c-2.932,0-5.175,1.594-7.063,3.935v-.02L63.453,0c-3.9,0-7.063,3.384-7.673,8.421L52.828,32.759c2.243,0,4.624-.649,5.9-2.3a6.535,6.535,0,0,0,5.391,2.656c6.572,0,11.077-7.634,11.077-14.8C75.16,11.786,71.992,9.72,68.824,9.72Zm-.61,11.707c-.689,3.994-2.912,6.709-5.057,6.709a4.362,4.362,0,0,1-3.089-.964c.413-3.5.669-5.647,1.456-7.5s2.656-4.8,4.6-4.8c1.909,0,2.774,2.538,2.086,6.552ZM91.608,10.251H87.024l.02-.236c.315-2.991,1.023-4.565,3.364-4.82a2.455,2.455,0,0,0,2.479-1.889c.138-.708.571-3.168.571-3.168C84.25.079,81.358,4.053,80.61,10.113l-.02.138h-.1c-1.5,0-3.148,1.692-3.424,3.837l-.1.787h3.069L77.462,36.163l-.787,3.817c.1,0,.216.02.315.02,4.309-.157,7.063-3.561,7.673-8.5L86.67,14.875h1.436c1.417,0,3.069-1.417,3.364-3.778l.138-.846Zm23.847-.394c-5.293,0-10.29,3.9-11.825,10.015s.787,13.36,8.578,13.36c7.772,0,12.258-7.536,12.258-13.812,0-6.237-4.23-9.562-9.011-9.562ZM117.6,21.23c-.275,2.774-1.5,6.985-4.84,6.985-3.364,0-2.892-4.919-2.558-7.26.354-2.5,1.751-6.06,4.761-6.06,2.7,0,2.951,3.207,2.636,6.335Zm33.015-4.348s-2.656,8.342-2.873,9.031c-.079-.708-2.027-15.681-2.027-15.681-4.525,0-6.945,3.227-8.224,6.631,0,0-3.227,8.362-3.5,9.07-.02-.649-.492-8.972-.492-8.972a7.394,7.394,0,0,0-7.182-6.709l3.719,22.686c4.742-.02,7.3-3.227,8.637-6.631,0,0,2.853-7.378,2.951-7.713.039.315,2.046,14.343,2.046,14.343,4.761,0,7.319-3.01,8.7-6.3l6.67-16.39c-4.683,0-7.162,3.207-8.421,6.631ZM95.937.138,92.081,31.244l-.787,3.837c.1,0,.216.02.315.02,4.151-.059,7.1-3.7,7.654-8.283l2.223-17.846C102.154,3.522,98.908.138,95.937.138Z" fill="#414cf9"/>
</svg>
